<?xml version="1.0" standalone="no"?>
<!DOCTYPE svg PUBLIC "-//W3C//DTD SVG 20010904//EN"
 "http://www.w3.org/TR/2001/REC-SVG-20010904/DTD/svg10.dtd">
<svg version="1.0" xmlns="http://www.w3.org/2000/svg"
 width="256" height="256" viewBox="70 70 560 560"
 preserveAspectRatio="xMidYMid meet">

<g transform="translate(0.000000,700.000000) scale(0.100000,-0.100000)"
fill="#000000" stroke="none">
<path d="M1811 6014 c-197 -53 -363 -231 -405 -436 -14 -69 -16 -284 -16
-2005 0 -1649 2 -1938 15 -1997 44 -209 212 -382 416 -431 42 -9 115 -15 211
-15 l148 0 2 -180 3 -179 202 134 201 134 194 -131 c106 -71 200 -136 208
-143 13 -12 15 8 12 176 l-3 189 1241 0 c1337 0 1286 -2 1324 51 9 14 16 43
16 72 0 42 -5 54 -34 83 -28 28 -42 34 -75 34 l-41 0 0 295 0 295 24 0 c37 0
74 17 101 46 l25 27 0 1961 c0 2160 5 1987 -60 2021 -43 22 -3626 21 -3709 -1z
m369 -2019 l0 -1785 -147 0 c-168 -1 -207 -11 -320 -88 -34 -23 -64 -42 -67
-42 -4 0 -6 186 -6 413 l0 413 63 -4 c107 -7 177 43 177 126 0 81 -57 122
-169 122 l-71 0 0 358 0 357 77 0 c94 0 136 23 154 85 15 48 6 81 -30 123 -28
31 -33 32 -115 36 l-86 3 0 359 0 359 78 0 c88 0 117 12 149 59 28 42 29 70 3
120 -24 49 -76 71 -166 71 l-65 0 3 238 c4 268 10 294 85 369 75 75 129 91
316 92 l137 1 0 -1785z m3158 3 l-3 -1783 -1457 -3 -1458 -2 0 1785 0 1785
1460 0 1460 0 -2 -1782z m-158 -2328 l0 -290 -1090 0 -1090 0 0 180 0 180
-410 0 -410 0 0 -180 0 -180 -143 0 c-218 0 -298 33 -353 146 -81 166 17 368
203 419 39 11 356 13 1671 14 l1622 1 0 -290z"/>
<path d="M3665 4943 c-168 -36 -322 -121 -455 -253 -197 -194 -290 -413 -290
-680 0 -493 333 -899 800 -976 554 -91 1036 280 1110 856 36 280 -60 569 -261
784 -131 140 -319 241 -513 275 -86 16 -308 12 -391 -6z m305 -380 c0 -38 4
-73 8 -79 4 -7 34 -19 67 -28 110 -31 191 -115 210 -218 l7 -38 -101 0 c-96 0
-102 1 -110 23 -19 50 -80 77 -172 77 -32 0 -77 -7 -99 -16 -96 -38 -90 -157
8 -184 21 -5 88 -16 150 -24 233 -31 322 -111 322 -290 0 -76 -32 -157 -78
-197 -41 -37 -120 -74 -174 -84 l-38 -7 0 -74 0 -74 -80 0 -80 0 0 74 0 74
-41 7 c-57 10 -173 70 -204 107 -36 43 -63 99 -71 147 l-7 41 99 0 99 -1 20
-42 c25 -52 73 -78 158 -84 114 -9 192 29 204 99 7 45 -15 84 -55 99 -14 5
-76 17 -136 25 -204 26 -298 76 -341 176 -22 53 -20 181 4 233 35 78 115 137
216 160 l50 11 3 77 3 77 79 0 80 0 0 -67z"/>
</g>
</svg>
